<?xml version="1.0" encoding="UTF-8" standalone="no"?>
<!-- Generator: Adobe Illustrator 23.0.3, SVG Export Plug-In . SVG Version: 6.00 Build 0)  -->

<svg
   xmlns:dc="http://purl.org/dc/elements/1.1/"
   xmlns:cc="http://creativecommons.org/ns#"
   xmlns:rdf="http://www.w3.org/1999/02/22-rdf-syntax-ns#"
   xmlns:svg="http://www.w3.org/2000/svg"
   xmlns="http://www.w3.org/2000/svg"
   xmlns:sodipodi="http://sodipodi.sourceforge.net/DTD/sodipodi-0.dtd"
   xmlns:inkscape="http://www.inkscape.org/namespaces/inkscape"
   version="1.1"
   id="Layer_1"
   x="0px"
   y="0px"
   viewBox="0 0 458.62661 451.2208"
   xml:space="preserve"
   sodipodi:docname="fireball-phoenix-purple.svg"
   width="573.28326"
   height="564.026"
   inkscape:version="0.92.4 5da689c313, 2019-01-14"><metadata
   id="metadata9"><rdf:RDF><cc:Work
       rdf:about=""><dc:format>image/svg+xml</dc:format><dc:type
         rdf:resource="http://purl.org/dc/dcmitype/StillImage" /><dc:title></dc:title></cc:Work></rdf:RDF></metadata><defs
   id="defs7" /><sodipodi:namedview
   pagecolor="#ffffff"
   bordercolor="#666666"
   borderopacity="1"
   objecttolerance="10"
   gridtolerance="10"
   guidetolerance="10"
   inkscape:pageopacity="0"
   inkscape:pageshadow="2"
   inkscape:window-width="1898"
   inkscape:window-height="1030"
   id="namedview5"
   showgrid="false"
   fit-margin-top="0"
   fit-margin-left="0"
   fit-margin-right="0"
   fit-margin-bottom="0"
   scale-x="0.8"
   inkscape:zoom="0.98994949"
   inkscape:cx="151.05127"
   inkscape:cy="314.38557"
   inkscape:window-x="1930"
   inkscape:window-y="38"
   inkscape:window-maximized="0"
   inkscape:current-layer="Layer_1" />

<path
   style="opacity:1;fill:#8f40bf;fill-opacity:1;stroke:none;stroke-width:0.80000001px;stroke-linecap:butt;stroke-linejoin:miter;stroke-opacity:1"
   d="m 22.487549,354.93755 c 0,0 -44.800261,-65.10432 -6.81853,-156.01805 0,0 40.40611,-88.08531 128.087351,-96.16653 0,0 -63.437591,52.12387 -61.821341,114.34927 0,0 -61.51829,42.93148 -59.44748,137.83531 z"
   id="path3722"
   inkscape:connector-curvature="0" /><path
   style="opacity:1;fill:#8f40bf;fill-opacity:1;stroke:none;stroke-width:0.80000001px;stroke-linecap:butt;stroke-linejoin:miter;stroke-opacity:1"
   d="m 245.37722,0.12139985 c 0,0 -8.6873,27.27363215 -79.6,37.98125615 0,0 -75.788605,8.713216 -101.735933,67.289054 0,0 26.857352,-16.284366 76.285933,-18.284366 0,0 67.67444,1.50376 85.45312,-33.851568 0,0 16.36439,-24.244016 19.59688,-53.13437615 z M 224.97253,31.435464 c 0,0 -6.86924,37.578608 -56.56875,43.437504 0,0 -52.72929,1.818616 -77.174997,9.293744 0,0 12.525997,-22.829272 72.124997,-35.15312 0,0 35.55683,-5.05224 61.61875,-17.578128 z"
   id="path3724"
   inkscape:connector-curvature="0" /><path
   style="opacity:1;fill:#8f40bf;fill-opacity:1;stroke:none;stroke-width:0.80000001px;stroke-linecap:butt;stroke-linejoin:miter;stroke-opacity:1"
   d="m 340.23347,2.9401519 c -8.56584,-0.02016 -13.84218,1.22188 -13.84218,1.22188 -24.64774,4.444672 -53.9422,23.8390561 -53.9422,23.8390561 -27.55383,17.934456 -33.52137,19.55084 -34.80156,19.507816 17.43088,5.912688 32.78125,3.92812 32.78125,3.92812 11.31371,0.202024 31.51723,-5.8586 41.61875,-8.889056 10.10152,-3.030456 37.37656,-9.495312 37.37656,-9.495312 40.00204,-6.06092 62.02344,1.212496 62.02344,1.212496 C 384.93103,7.6160639 356.58644,2.9786079 340.23347,2.9401519 Z M 237.64753,47.508904 c -0.11799,-0.04 -0.23339,-0.07176 -0.35156,-0.112504 0,0 0.0454,0.102216 0.35156,0.112504 z M 342.74909,12.76828 c 9.04565,0.09011 19.94472,1.835792 30.10938,7.757808 0,0 -22.42557,-0.202312 -50.50781,8.889064 0,0 -40.80988,14.143416 -50.70937,10.910936 0,0 26.87086,-18.18252 50.91249,-25.05156 0,0 8.56519,-2.622112 20.19531,-2.506248 z"
   id="path3726"
   inkscape:connector-curvature="0" /><path
   style="fill:#8f40bf;fill-opacity:1;stroke:none;stroke-width:0.80000001px;stroke-linecap:butt;stroke-linejoin:miter;stroke-opacity:1"
   d="m 458.31785,129.21828 c -25.65788,30.50661 -23.56116,33.17366 -34.84688,75.45938 -11.28571,42.28572 -32,62.71405 -32,62.71405 73.42857,-17.14285 63.4125,-95.94843 63.4125,-95.94843 -2.22233,-35.35534 3.43438,-42.225 3.43438,-42.225 z m -14.56251,39.03125 c 0,0 9.42969,48.85759 -22.57031,72.57187 0,0 12.57054,-31.14353 14.85626,-42.85781 2.2857,-11.71429 6.5712,-27.99977 7.71405,-29.71406 z"
   id="path3728"
   inkscape:connector-curvature="0" /><path
   style="fill:#8f40bf;fill-opacity:1;stroke:none;stroke-width:0.80000001px;stroke-linecap:butt;stroke-linejoin:miter;stroke-opacity:1"
   d="m 119.00763,166.19055 c 0,0 17.47564,-48.48732 95.86347,-84.448752 0,0 48.89139,-20.20305 80.81221,-23.03148 0,0 29.50128,-0.7465 60.07271,-15.31793 0,0 -7.42857,43.71428 -110.28572,68.571432 -102.85714,24.85713 -108.92534,44.45347 -126.46267,54.22673 z"
   id="path4551"
   inkscape:connector-curvature="0" /><path
   style="fill:#8f40bf;fill-opacity:1;stroke:none;stroke-width:0.80000001px;stroke-linecap:butt;stroke-linejoin:miter;stroke-opacity:1"
   d="m 322.07745,331.28524 c 0,0 18.86069,-28.92613 17.24445,-83.47436 -1.61624,-54.54824 15.29126,-84.98993 84.43412,-102.13278 0,0 -25.42857,12 -35.14286,72 -9.71429,60 -23.37305,90.00534 -66.53571,113.60714 z"
   id="path4564"
   inkscape:connector-curvature="0" /><path
   style="opacity:1;fill:#8f40bf;fill-opacity:1;stroke:none;stroke-width:0.80000001px;stroke-linecap:butt;stroke-linejoin:miter;stroke-opacity:1"
   d="m 446.18503,277.89171 c -55.57142,4.5 -89.85826,52.07255 -130.42969,106.92969 -40.57142,54.85714 -76.28437,66 -76.28437,66 104,-5.71429 166.57144,-117.42946 176,-135.14374 9.42857,-17.71428 30.71406,-37.78595 30.71406,-37.78595 z m -29.57187,17.5 c 0,0 -50.24948,100.13953 -121.83907,129.49844 0,0 28.4105,-29.78349 53.83907,-66.64062 25.42857,-36.85715 50.28571,-55.14354 68,-62.85782 z"
   id="path4566"
   inkscape:connector-curvature="0" /><path
   style="fill:#8f40bf;fill-opacity:1;stroke:none;stroke-width:0.80000001px;stroke-linecap:butt;stroke-linejoin:miter;stroke-opacity:1"
   d="m 55.470299,396.53524 c 0,0 16.57143,-40.85714 66.285721,-56.85714 0,0 45.71428,-11.71428 71.71428,-14 26,-2.28571 114.85715,-11.71428 126.57144,-97.14286 0,0 27.71428,170.85715 -157.14287,173.42858 0,0 71.36716,33.33137 142.48191,-26.87372 0,0 -28.19619,50.01657 -101.33904,64.01657 -73.14287,14 -128.571441,-23.71428 -148.571441,-42.57143 z"
   id="path4579"
   inkscape:connector-curvature="0" /><path
   style="fill:#8f40bf;fill-opacity:1;stroke:none;stroke-width:0.80000001px;stroke-linecap:butt;stroke-linejoin:miter;stroke-opacity:1"
   d="m 42.184589,382.24953 c 0,0 -21.66683,-83.1229 56.92303,-153.42952 l 30.791251,-4.14191 c 0,0 7.89759,22.22364 30.62603,17.77897 22.72844,-4.44467 21.61727,-24.84976 20.00102,-33.73909 -1.61624,-8.88935 -12.12183,-21.21321 -28.08224,-18.78884 -15.96041,2.42437 -21.2132,13.53604 -22.72843,18.68782 l -21.41523,3.13147 c 0,0 22.31314,-49.21319 108.31314,-73.4989 86,-24.28571 136.44682,-25.7991 231.40115,-91.256982 0,0 -0.54401,21.25698 -40.25829,66.685552 0,0 21.42857,3.14285 24.28572,8.28572 0,0 -30.28572,0.57142 -77.42858,34 0,0 -18,9.71428 -38.57142,36.85713 0,0 -10.28572,14.28572 -59.14287,31.71429 0,0 15.14287,7.42858 44.57143,2.28571 0,0 -4.57143,55.42858 -79.42856,73.42858 0,0 -54.00001,10 -79.42858,14 0,0 -72.571431,12.28571 -100.428571,68 z"
   id="path4581"
   inkscape:connector-curvature="0" /><circle
   style="opacity:1;fill:#8f40bf;fill-opacity:1;stroke:none;stroke-width:0.80000001;stroke-opacity:1"
   id="path4583"
   cx="154.61316"
   cy="216.53523"
   r="15.142858" /></svg>